{"title":"Open Season 3 2010 BDRip XVID AC3 HQ Hive-CM8","uid":6065427,"size":1494278427,"categoryP":"video","categoryS":"movies","magnet":"?xt=urn:btih:481a0f19ae3c632206659c6babe34024e2dfe9be&amp;dn=+Open+Season+3+2010+BDRip+XVID+AC3+HQ+Hive-CM8&amp;tr=udp%3A%2F%2Ftracker.openbittorrent.com%3A80&amp;tr=udp%3A%2F%2Fopen.demonii.com%3A1337&amp;tr=udp%3A%2F%2Ftracker.coppersurfer.tk%3A6969&amp;tr=udp%3A%2F%2Fexodus.desync.com%3A6969","seeders":0,"leechers":0,"uploader":"hiest","files":-1,"time":1293336242,"description":"Open Season 3 2010 BDRip XVID AC3 HQ Hive-CM8\n\n\nThx Hive\n\nCM8 Doing It Right The First Time :D\n\nWhy download a touched up rip of a rip BRrip\nGet the real deal BDRip\nEnjoy\n\nSource Bluray\n\nVideo: 720x400 @bitrate 2200 2pass\nAudio: DTS to AC3 5.1 @448\nSample: yes included\n\n &lt;a href=&quot;\nhttp://www.imdb.com/title/tt1646926/&quot; rel=&quot;nofollow&quot; target=&quot;_NEW&quot;&gt;\nhttp://www.imdb.com/title/tt1646926/&lt;/a&gt;\n\n\nGeneral\nComplete name : Open.Season.3.2010.BDRip.XVID.AC3.HQ.Hive-CM8.avi\nFormat : AVI\nFormat/Info : Audio Video Interleave\nFile size : 1.39 GiB\nDuration : 1h 14mn\nOverall bit rate : 2 658 Kbps\nWriting application : Nandub v1.0rc2\nWriting library : Nandub build 1853/release\n\nVideo\nID : 0\nFormat : MPEG-4 Visual\nFormat profile : Advanced Simple@L5\nFormat settings, BVOP : Yes\nFormat settings, QPel : Yes\nFormat settings, GMC : No warppoints\nFormat settings, Matrix : Default (H.263)\nMuxing mode : Packed bitstream\nCodec ID : XVID\nCodec ID/Hint : XviD\nDuration : 1h 14mn\nBit rate : 2 201 Kbps\nWidth : 720 pixels\nHeight : 400 pixels\nDisplay aspect ratio : 16:9\nFrame rate : 23.976 fps\nColor space : YUV\nChroma subsampling : 4:2:0\nBit depth : 8 bits\nScan type : Progressive\nBits/(Pixel*Frame) : 0.319\nStream size : 1.15 GiB (83%)\nWriting library : XviD 1.2.1 (UTC 2008-12-04)\n\nAudio\nID : 1\nFormat : AC-3\nFormat/Info : Audio Coding 3\nMode extension : CM (complete main)\nCodec ID : 2000\nDuration : 1h 14mn\nBit rate mode : Constant\nBit rate : 448 Kbps\nChannel(s) : 6 channels\nChannel positions : Front: L C R, Side: L R, LFE\nSampling rate : 48.0 KHz\nBit depth : 16 bits\nStream size : 239 MiB (17%)\nAlignment : Split accross interleaves\nInterleave, duration : 42 ms (1.00 video frame)\nInterleave, preload duration : 500 ms\n\n\n\nCiara Bravo ... Gesalita (voice)\nCody Cameron ... Mr. Weenie (voice)\nKarley Scott Collins ... Gisela (voice)\nCrispin Glover ... Fifi (voice)\nJane Krakowski ... Giselle (voice)\nSean Mullen ... Roger (voice)\nSteve Schirripa ... Roberto (voice)\nDana Snyder ... Alistair (voice)\nMatthew W. Taylor ... Elliot (voice)\nGina Torres ... Ursa (voice) \n\n\nBoog, Elliot and other forest wildies return with an all-new andenture, \nthis time in a Big Top Circus! (who would've thought) The comedy begins \nwhen Boog's pals choose their family obligations over the annual guy's trip, \nand a dissapointed Boog decides to take a trip of his own, which leads him right \ninto the middle of a circus ring.\n\n\n\n\n\n================================== &lt;a href=&quot;\nhttp://thepiratebay.se/user/hiest&quot; rel=&quot;nofollow&quot; target=&quot;_NEW&quot;&gt;\nhttp://thepiratebay.se/user/hiest&lt;/a&gt;\n==================================\n\n\n\n\n\nScreen Shots:\n &lt;a href=&quot;\nhttp://img27.imageshack.us/img27/2811/14123073.png&quot; rel=&quot;nofollow&quot; target=&quot;_NEW&quot;&gt;\nhttp://img27.imageshack.us/img27/2811/14123073.png&lt;/a&gt;\n &lt;a href=&quot;\nhttp://img814.imageshack.us/img814/2574/opop.png&quot; rel=&quot;nofollow&quot; target=&quot;_NEW&quot;&gt;\nhttp://img814.imageshack.us/img814/2574/opop.png&lt;/a&gt;\n &lt;a href=&quot;\nhttp://img210.imageshack.us/img210/4781/opopop.png&quot; rel=&quot;nofollow&quot; target=&quot;_NEW&quot;&gt;\nhttp://img210.imageshack.us/img210/4781/opopop.png&lt;/a&gt;\n &lt;a href=&quot;\nhttp://img94.imageshack.us/img94/5712/opopopopi.png&quot; rel=&quot;nofollow&quot; target=&quot;_NEW&quot;&gt;\nhttp://img94.imageshack.us/img94/5712/opopopopi.png&lt;/a&gt;\n &lt;a href=&quot;\nhttp://img706.imageshack.us/img706/2783/opopopopop.png&quot; rel=&quot;nofollow&quot; target=&quot;_NEW&quot;&gt;\nhttp://img706.imageshack.us/img706/2783/opopopopop.png&lt;/a&gt;\n &lt;a href=&quot;\nhttp://img714.imageshack.us/img714/8210/opopopopopop.png&quot; rel=&quot;nofollow&quot; target=&quot;_NEW&quot;&gt;\nhttp://img714.imageshack.us/img714/8210/opopopopopop.png&lt;/a&gt;\n &lt;a href=&quot;\nhttp://img204.imageshack.us/img204/3258/opopopopopopopop.png&quot; rel=&quot;nofollow&quot; target=&quot;_NEW&quot;&gt;\nhttp://img204.imageshack.us/img204/3258/opopopopopopopop.png&lt;/a&gt;\n\n","torrent":{"xt":"urn:btih:481a0f19ae3c632206659c6babe34024e2dfe9be","amp;dn":"+Open+Season+3+2010+BDRip+XVID+AC3+HQ+Hive-CM8","amp;tr":["udp%3A%2F%2Ftracker.openbittorrent.com%3A80","udp%3A%2F%2Fopen.demonii.com%3A1337","udp%3A%2F%2Ftracker.coppersurfer.tk%3A6969","udp%3A%2F%2Fexodus.desync.com%3A6969"],"infoHash":"481a0f19ae3c632206659c6babe34024e2dfe9be","infoHashBuffer":{"type":"Buffer","data":[72,26,15,25,174,60,99,34,6,101,156,107,171,227,64,36,226,223,233,190]},"announce":[],"urlList":[]}}